HIERARCHY
ROOT Hips
{
	OFFSET 0.000000 121.760803 0.000000
	CHANNELS 6 Xposition Yposition Zposition Xrotation Yrotation Zrotation 
	JOINT Spine
	{
		OFFSET 0.072000 7.257294 -0.789700
		CHANNELS 3 Xrotation Yrotation Zrotation
		JOINT Spine1
		{
			OFFSET 0.000000 12.508769 -0.658067
			CHANNELS 3 Xrotation Yrotation Zrotation
			JOINT Spine1_split
			{
				OFFSET 0.000000 12.508769 -0.658067
				CHANNELS 3 Xrotation Yrotation Zrotation
				JOINT Spine2
				{
					OFFSET 0.000000 12.508769 -0.658067
					CHANNELS 3 Xrotation Yrotation Zrotation
					JOINT Neck
					{
						OFFSET 0.000000 14.033295 7.520400
						CHANNELS 3 Xrotation Yrotation Zrotation
						JOINT Head
						{
							OFFSET 0.000000 8.198502 5.703100
							CHANNELS 3 Xrotation Yrotation Zrotation
							JOINT HeadTop_End
							{
								OFFSET 0.000000 17.760803 13.332701
								CHANNELS 3 Xrotation Yrotation Zrotation
								End Site
								{
									OFFSET 0.000000 0.000000 0.000000
								}
							}
						}
					}
					JOINT LeftShoulder
					{
						OFFSET 6.292450 5.785301 -0.669000
						CHANNELS 3 Xrotation Yrotation Zrotation
						JOINT LeftShoulder_split
						{
							OFFSET 6.292450 5.785301 -0.669000
							CHANNELS 3 Xrotation Yrotation Zrotation
							JOINT LeftArm
							{
								OFFSET 13.907140 -6.093903 1.965100
								CHANNELS 3 Xrotation Yrotation Zrotation
								JOINT LeftForeArm
								{
									OFFSET 34.140198 0.000000 0.000000
									CHANNELS 3 Xrotation Yrotation Zrotation
									JOINT LeftHand
									{
										OFFSET 40.960209 0.000000 0.000000
										CHANNELS 3 Xrotation Yrotation Zrotation
										JOINT LeftHandThumb1
										{
											OFFSET 10.006996 -7.170425 9.573125
											CHANNELS 3 Xrotation Yrotation Zrotation
											JOINT LeftHandThumb2
											{
												OFFSET 1.835007 -1.059448 1.059443
												CHANNELS 3 Xrotation Yrotation Zrotation
												JOINT LeftHandThumb3
												{
													OFFSET 2.112267 -1.219513 1.219518
													CHANNELS 3 Xrotation Yrotation Zrotation
													JOINT LeftHandThumb4
													{
														OFFSET 4.843811 -2.796570 2.796576
														CHANNELS 3 Xrotation Yrotation Zrotation
														End Site
														{
															OFFSET 0.000000 0.000000 0.000000
														}
													}
												}
											}
										}
										JOINT LeftHandIndex1
										{
											OFFSET 18.389847 -0.922348 4.596882
											CHANNELS 3 Xrotation Yrotation Zrotation
											JOINT LeftHandIndex2
											{
												OFFSET 4.711273 0.000000 0.000000
												CHANNELS 3 Xrotation Yrotation Zrotation
												JOINT LeftHandIndex3
												{
													OFFSET 2.886131 0.000000 0.000000
													CHANNELS 3 Xrotation Yrotation Zrotation
													JOINT LeftHandIndex4
													{
														OFFSET 6.145912 0.000000 0.000000
														CHANNELS 3 Xrotation Yrotation Zrotation
														End Site
														{
															OFFSET 0.000000 0.000000 0.000000
														}
													}
												}
											}
										}
										JOINT LeftHandMiddle1
										{
											OFFSET 18.013008 0.000000 0.000000
											CHANNELS 3 Xrotation Yrotation Zrotation
											JOINT LeftHandMiddle2
											{
												OFFSET 4.946693 0.000000 0.000000
												CHANNELS 3 Xrotation Yrotation Zrotation
												JOINT LeftHandMiddle3
												{
													OFFSET 3.342232 0.000000 0.000000
													CHANNELS 3 Xrotation Yrotation Zrotation
													JOINT LeftHandMiddle4
													{
														OFFSET 4.461754 0.000000 0.000000
														CHANNELS 3 Xrotation Yrotation Zrotation
														End Site
														{
															OFFSET 0.000000 0.000000 0.000000
														}
													}
												}
											}
										}
										JOINT LeftHandRing1
										{
											OFFSET 15.849892 -0.102921 -4.126150
											CHANNELS 3 Xrotation Yrotation Zrotation
											JOINT LeftHandRing2
											{
												OFFSET 3.527054 0.000000 0.000000
												CHANNELS 3 Xrotation Yrotation Zrotation
												JOINT LeftHandRing3
												{
													OFFSET 2.961098 0.000000 0.000000
													CHANNELS 3 Xrotation Yrotation Zrotation
													JOINT LeftHandRing4
													{
														OFFSET 4.927200 0.000000 0.000000
														CHANNELS 3 Xrotation Yrotation Zrotation
														End Site
														{
															OFFSET 0.000000 0.000000 0.000000
														}
													}
												}
											}
										}
										JOINT LeftHandPinky1
										{
											OFFSET 12.791824 -0.832031 -6.799156
											CHANNELS 3 Xrotation Yrotation Zrotation
											JOINT LeftHandPinky2
											{
												OFFSET 3.327133 0.000000 0.000000
												CHANNELS 3 Xrotation Yrotation Zrotation
												JOINT LeftHandPinky3
												{
													OFFSET 3.014900 0.000000 0.000000
													CHANNELS 3 Xrotation Yrotation Zrotation
													JOINT LeftHandPinky4
													{
														OFFSET 5.847786 0.000000 0.000000
														CHANNELS 3 Xrotation Yrotation Zrotation
														End Site
														{
															OFFSET 0.000000 0.000000 0.000000
														}
													}
												}
											}
										}
									}
								}
							}
						}
					}
					JOINT RightShoulder
					{
						OFFSET -6.292450 5.785301 -0.669000
						CHANNELS 3 Xrotation Yrotation Zrotation
						JOINT RightShoulder_split
						{
							OFFSET -6.292450 5.785301 -0.669000
							CHANNELS 3 Xrotation Yrotation Zrotation
							JOINT RightArm
							{
								OFFSET -13.907140 -6.093903 1.965100
								CHANNELS 3 Xrotation Yrotation Zrotation
								JOINT RightForeArm
								{
									OFFSET -34.140198 0.000000 0.000000
									CHANNELS 3 Xrotation Yrotation Zrotation
									JOINT RightHand
									{
										OFFSET -40.960209 0.000000 0.000000
										CHANNELS 3 Xrotation Yrotation Zrotation
										JOINT RightHandThumb1
										{
											OFFSET -10.007050 -7.170456 9.573117
											CHANNELS 3 Xrotation Yrotation Zrotation
											JOINT RightHandThumb2
											{
												OFFSET -1.835007 -1.059448 1.059443
												CHANNELS 3 Xrotation Yrotation Zrotation
												JOINT RightHandThumb3
												{
													OFFSET -2.112267 -1.219513 1.219518
													CHANNELS 3 Xrotation Yrotation Zrotation
													JOINT RightHandThumb4
													{
														OFFSET -4.843834 -2.796585 2.796590
														CHANNELS 3 Xrotation Yrotation Zrotation
														End Site
														{
															OFFSET 0.000000 0.000000 0.000000
														}
													}
												}
											}
										}
										JOINT RightHandIndex1
										{
											OFFSET -18.389870 -0.922424 4.596786
											CHANNELS 3 Xrotation Yrotation Zrotation
											JOINT RightHandIndex2
											{
												OFFSET -4.711273 0.000000 0.000000
												CHANNELS 3 Xrotation Yrotation Zrotation
												JOINT RightHandIndex3
												{
													OFFSET -2.886131 0.000000 0.000000
													CHANNELS 3 Xrotation Yrotation Zrotation
													JOINT RightHandIndex4
													{
														OFFSET -6.145920 0.000000 0.000000
														CHANNELS 3 Xrotation Yrotation Zrotation
														End Site
														{
															OFFSET 0.000000 0.000000 0.000000
														}
													}
												}
											}
										}
										JOINT RightHandMiddle1
										{
											OFFSET -18.013008 0.000000 0.000000
											CHANNELS 3 Xrotation Yrotation Zrotation
											JOINT RightHandMiddle2
											{
												OFFSET -4.946693 0.000000 0.000000
												CHANNELS 3 Xrotation Yrotation Zrotation
												JOINT RightHandMiddle3
												{
													OFFSET -3.342232 0.000000 0.000000
													CHANNELS 3 Xrotation Yrotation Zrotation
													JOINT RightHandMiddle4
													{
														OFFSET -4.461754 0.000000 0.000000
														CHANNELS 3 Xrotation Yrotation Zrotation
														End Site
														{
															OFFSET 0.000000 0.000000 0.000000
														}
													}
												}
											}
										}
										JOINT RightHandRing1
										{
											OFFSET -15.849876 -0.102936 -4.126237
											CHANNELS 3 Xrotation Yrotation Zrotation
											JOINT RightHandRing2
											{
												OFFSET -3.527054 0.000000 0.000000
												CHANNELS 3 Xrotation Yrotation Zrotation
												JOINT RightHandRing3
												{
													OFFSET -2.961098 0.000000 0.000000
													CHANNELS 3 Xrotation Yrotation Zrotation
													JOINT RightHandRing4
													{
														OFFSET -4.927200 0.000000 0.000000
														CHANNELS 3 Xrotation Yrotation Zrotation
														End Site
														{
															OFFSET 0.000000 0.000000 0.000000
														}
													}
												}
											}
										}
										JOINT RightHandPinky1
										{
											OFFSET -12.791786 -0.832077 -6.799222
											CHANNELS 3 Xrotation Yrotation Zrotation
											JOINT RightHandPinky2
											{
												OFFSET -3.327133 0.000000 0.000000
												CHANNELS 3 Xrotation Yrotation Zrotation
												JOINT RightHandPinky3
												{
													OFFSET -3.014900 0.000000 0.000000
													CHANNELS 3 Xrotation Yrotation Zrotation
													JOINT RightHandPinky4
													{
														OFFSET -5.847786 0.000000 0.000000
														CHANNELS 3 Xrotation Yrotation Zrotation
														End Site
														{
															OFFSET 0.000000 0.000000 0.000000
														}
													}
												}
											}
										}
									}
								}
							}
						}
					}
				}
			}
		}
	}
	JOINT LeftUpLeg
	{
		OFFSET 13.026900 -6.336304 -1.092800
		CHANNELS 3 Xrotation Yrotation Zrotation
		JOINT LeftLeg
		{
			OFFSET 0.524474 -46.096886 9.782700
			CHANNELS 3 Xrotation Yrotation Zrotation
			JOINT LeftFoot
			{
				OFFSET -0.524474 -53.427422 -12.948200
				CHANNELS 3 Xrotation Yrotation Zrotation
				JOINT LeftToeBase
				{
					OFFSET 0.192200 -14.009700 16.364100
					CHANNELS 3 Xrotation Yrotation Zrotation
					JOINT LeftToe_End
					{
						OFFSET -1.784700 -0.561700 9.474800
						CHANNELS 3 Xrotation Yrotation Zrotation
						End Site
						{
							OFFSET 0.000000 0.000000 0.000000
						}
					}
				}
			}
		}
	}
	JOINT RightUpLeg
	{
		OFFSET -12.883000 -6.336304 -1.092800
		CHANNELS 3 Xrotation Yrotation Zrotation
		JOINT RightLeg
		{
			OFFSET -0.524587 -46.096825 9.782800
			CHANNELS 3 Xrotation Yrotation Zrotation
			JOINT RightFoot
			{
				OFFSET 0.524587 -53.427383 -12.948300
				CHANNELS 3 Xrotation Yrotation Zrotation
				JOINT RightToeBase
				{
					OFFSET -0.192200 -14.009700 16.364100
					CHANNELS 3 Xrotation Yrotation Zrotation
					JOINT RightToe_End
					{
						OFFSET 1.784700 -0.561700 9.474800
						CHANNELS 3 Xrotation Yrotation Zrotation
						End Site
						{
							OFFSET 0.000000 0.000000 0.000000
						}
					}
				}
			}
		}
	}
}
MOTION
Frames: 4
Frame Time: 0.016667
0.745787 134.482468 -1.770256 -92.610118 1.437478 4.433041 4.271692 -0.732469 0.306195 5.662835 -1.787561 -1.408119 0.000000 0.000000 0.000000 5.682633 -1.863436 -1.213450 -7.406071 -0.581397 1.811092 -13.802503 -2.716338 2.653906 0.000000 0.000000 -0.000000 0.833464 0.643752 -7.065388 0.000000 0.000000 0.000000 35.730902 -29.399962 -39.106040 -0.000636 -86.008740 -0.000584 -14.794582 -4.980872 -2.151174 6.590524 -4.958674 16.122643 7.178854 21.567331 2.147315 -3.980816 36.507518 21.976012 -0.000002 0.000002 -0.000000 0.659517 4.932342 -26.024467 0.169787 1.401617 -13.813537 0.169800 1.401625 -13.813549 0.000003 0.000003 0.000000 1.376915 6.461959 -24.994181 0.169879 1.401958 -13.817118 0.169793 1.401629 -13.813563 -0.000001 0.000002 0.000002 2.098710 8.644292 -21.209684 0.169793 1.401607 -13.813555 0.169791 1.401638 -13.813544 -0.000000 0.000001 0.000001 2.123414 10.735871 -14.817571 0.167502 1.392255 -13.719340 0.169814 1.401716 -13.814470 -0.000002 -0.000001 -0.000002 1.050846 -2.047991 18.147316 0.000000 0.000000 0.000000 -39.666071 52.653406 55.025882 0.000078 100.264807 -0.000062 -34.129964 33.547348 -4.808401 24.570554 30.236698 15.138938 9.301561 -39.834025 -3.735131 -3.574054 -23.455015 -18.375751 -0.000001 -0.000002 0.000000 -0.115174 -3.017698 29.162712 0.947786 -2.817927 37.173267 0.240808 -1.479690 18.487372 0.000000 0.000001 0.000000 -2.076529 -3.537399 58.007820 2.575725 -4.167063 63.427438 1.714206 -3.611045 50.776945 0.000001 -0.000000 -0.000000 0.679057 -5.779041 70.144602 3.287905 -4.451757 72.883938 1.810674 -3.687546 52.292905 0.000002 0.000000 0.000000 3.720104 -6.826241 77.738372 3.738191 -4.565803 78.607138 3.738200 -4.565813 78.607172 -0.000001 0.000001 0.000001 0.528779 15.216963 12.286047 1.112680 7.290529 4.048277 36.654299 28.612766 -29.976771 -8.533126 0.000005 0.000007 0.000000 -0.000000 0.000000 -2.559256 -19.263536 -16.561436 1.424274 -6.264291 -7.331295 36.027759 -29.943379 30.590153 -2.926717 -0.000008 -0.000013 -0.000000 -0.000001 0.000001 
0.731803 134.475845 -1.912987 -92.823084 1.310232 4.414415 4.233874 -0.724508 0.270221 5.577424 -1.781749 -1.434906 0.000000 0.000000 0.000000 5.572897 -1.863084 -1.240883 -7.427406 -0.598162 1.870910 -14.412116 -2.797164 2.806450 0.000001 0.000000 0.000001 0.795794 0.368582 -6.754033 0.000000 0.000000 0.000000 35.724348 -29.362628 -39.579068 0.001051 -85.982267 0.001064 -14.760406 -4.934458 -2.109631 6.590527 -4.958678 16.122646 7.178858 21.567330 2.147313 -3.980823 36.507515 21.976011 -0.000003 0.000002 0.000003 0.659513 4.932340 -26.024464 0.169791 1.401614 -13.813542 0.169799 1.401626 -13.813546 0.000001 0.000001 -0.000000 1.376913 6.461958 -24.994172 0.169879 1.401956 -13.817117 0.169790 1.401628 -13.813562 -0.000003 -0.000000 0.000003 2.098710 8.644295 -21.209679 0.169794 1.401604 -13.813552 0.169786 1.401637 -13.813547 -0.000001 -0.000000 0.000000 2.123415 10.735869 -14.817566 0.167506 1.392257 -13.719342 0.169817 1.401718 -13.814467 -0.000000 0.000001 0.000001 1.046871 -1.901963 17.705029 0.000000 0.000000 0.000000 -41.695597 52.153200 56.287381 -0.000275 98.952133 0.000277 -34.567051 34.030123 -4.422388 24.570550 30.236711 15.138950 9.301615 -39.834032 -3.735087 -3.574078 -23.455003 -18.375779 -0.000000 0.000000 -0.000000 -0.115191 -3.017709 29.162715 0.947781 -2.817924 37.173287 0.240838 -1.479701 18.487364 -0.000001 -0.000001 -0.000000 -2.076541 -3.537394 58.007840 2.575704 -4.167080 63.427432 1.714209 -3.611043 50.776945 -0.000003 0.000001 -0.000001 0.679056 -5.779046 70.144595 3.287902 -4.451759 72.883938 1.810697 -3.687557 52.292919 -0.000001 -0.000000 -0.000001 3.720093 -6.826233 77.738379 3.738176 -4.565785 78.607165 3.738180 -4.565808 78.607172 -0.000001 0.000002 0.000001 0.981381 15.386108 12.291010 1.180368 7.290279 4.134146 36.705795 29.296611 -30.510288 -8.559213 0.000011 0.000016 0.000000 -0.000002 0.000000 -2.490410 -19.500240 -16.668295 1.496204 -6.130671 -7.226013 36.341360 -29.941630 30.569830 -3.139321 0.000018 0.000005 -0.000001 0.000002 0.000000 
0.716515 134.462250 -1.986328 -92.969325 1.265725 4.389256 4.227926 -0.708989 0.245929 5.498834 -1.756072 -1.456301 0.000000 0.000000 0.000000 5.557736 -1.836371 -1.256271 -7.364459 -0.607705 1.904432 -14.429620 -2.818834 2.924229 -0.000000 -0.000000 -0.000000 0.752577 0.149307 -6.556120 0.000000 0.000000 0.000000 35.791677 -29.405583 -39.728468 0.000728 -85.965662 0.000671 -14.823945 -4.926971 -1.997099 6.590525 -4.958676 16.122646 7.178858 21.567330 2.147319 -3.980825 36.507511 21.976011 -0.000001 0.000001 -0.000002 0.659515 4.932349 -26.024465 0.169787 1.401619 -13.813544 0.169798 1.401627 -13.813543 0.000002 0.000000 0.000000 1.376910 6.461964 -24.994181 0.169879 1.401958 -13.817118 0.169787 1.401630 -13.813564 -0.000000 0.000001 -0.000001 2.098710 8.644298 -21.209684 0.169795 1.401606 -13.813550 0.169792 1.401634 -13.813544 -0.000002 -0.000001 -0.000000 2.123414 10.735871 -14.817575 0.167504 1.392252 -13.719342 0.169822 1.401713 -13.814467 -0.000002 0.000004 -0.000001 1.031407 -1.759338 17.391861 0.000000 0.000000 0.000000 -42.645150 51.582074 56.777092 -0.000197 97.838307 0.000165 -34.847086 34.643751 -3.962457 24.570550 30.236701 15.138950 9.301615 -39.834039 -3.735098 -3.574077 -23.455008 -18.375762 -0.000000 -0.000002 0.000001 -0.115163 -3.017709 29.162726 0.947777 -2.817920 37.173274 0.240835 -1.479704 18.487369 -0.000001 0.000002 0.000002 -2.076516 -3.537404 58.007840 2.575698 -4.167072 63.427432 1.714204 -3.611054 50.776938 -0.000005 -0.000002 -0.000000 0.679052 -5.779063 70.144595 3.287904 -4.451766 72.883938 1.810702 -3.687559 52.292888 0.000000 0.000000 0.000002 3.720098 -6.826251 77.738372 3.738184 -4.565794 78.607165 3.738192 -4.565800 78.607158 -0.000001 0.000000 0.000001 1.329093 15.448496 12.307120 1.272702 7.273579 4.219356 36.785469 29.654178 -30.799365 -8.606435 -0.000022 -0.000020 0.000001 0.000000 -0.000000 -2.417396 -19.676759 -16.773797 1.558427 -6.048965 -7.103588 36.669663 -29.940769 30.569079 -3.401727 -0.000001 0.000002 -0.000000 0.000001 0.000000 
0.700088 134.459152 -2.016968 -93.004944 1.198125 4.335671 4.239206 -0.691874 0.245051 5.508404 -1.714589 -1.460459 0.000000 0.000000 0.000000 5.567299 -1.797903 -1.270685 -7.160150 -0.610771 1.930708 -13.898863 -2.777517 3.041224 0.000001 0.000000 0.000000 0.749799 0.216471 -6.485458 0.000000 0.000000 0.000000 35.680379 -29.527441 -39.791777 0.001364 -85.903460 0.001425 -14.753344 -4.901669 -2.106205 6.590526 -4.958676 16.122646 7.178857 21.567330 2.147315 -3.980824 36.507518 21.976009 -0.000000 0.000001 0.000006 0.659515 4.932344 -26.024464 0.169787 1.401619 -13.813544 0.169800 1.401631 -13.813543 -0.000002 0.000002 0.000000 1.376912 6.461959 -24.994171 0.169882 1.401957 -13.817118 0.169791 1.401628 -13.813561 -0.000003 -0.000000 -0.000000 2.098709 8.644295 -21.209684 0.169793 1.401606 -13.813553 0.169788 1.401634 -13.813546 0.000002 -0.000002 -0.000001 2.123414 10.735872 -14.817573 0.167506 1.392257 -13.719340 0.169819 1.401714 -13.814468 -0.000001 -0.000005 -0.000003 1.021789 -1.623928 17.128492 0.000000 0.000000 0.000000 -43.055399 51.175479 56.795311 -0.000538 96.870620 0.000530 -35.048030 35.074517 -3.705407 24.570555 30.236701 15.138925 9.301604 -39.834039 -3.735098 -3.574072 -23.455025 -18.375782 0.000001 -0.000003 0.000001 -0.115167 -3.017709 29.162726 0.947764 -2.817925 37.173260 0.240838 -1.479710 18.487369 -0.000002 -0.000003 -0.000001 -2.076514 -3.537387 58.007834 2.575696 -4.167066 63.427425 1.714196 -3.611051 50.776945 -0.000003 -0.000000 -0.000000 0.679043 -5.779054 70.144602 3.287921 -4.451759 72.883951 1.810696 -3.687553 52.292919 -0.000004 0.000001 -0.000000 3.720089 -6.826241 77.738365 3.738188 -4.565801 78.607172 3.738203 -4.565818 78.607158 0.000001 -0.000000 -0.000000 1.518577 15.447400 12.343689 1.393667 7.247239 4.306275 36.891146 29.644797 -30.771778 -8.547948 -0.000009 -0.000023 0.000000 -0.000001 0.000001 -2.401906 -19.754792 -16.763050 1.613556 -5.919392 -7.090420 37.004288 -29.945745 30.568057 -3.729893 -0.000009 -0.000024 -0.000000 0.000001 -0.000000 
